{"accessors":[{"bufferView":0,"byteOffset":0,"componentType":5126,"count":65535,"max":[254,35.0499000549316,254],"min":[-256,0,-256],"normalized":false,"type":"VEC3"},{"bufferView":1,"byteOffset":0,"componentType":5126,"count":65535,"max":[1,0.797915041446686,0.0123065439984202,1],"min":[0.60276997089386,-0.76181721687317,-0.01207031775266,1],"normalized":false,"type":"VEC4"},{"bufferView":2,"byteOffset":0,"componentType":5126,"count":65535,"max":[0.712405264377594,1,0.771421134471893],"min":[-0.79792994260788,0.602731227874756,-0.7025443315506],"normalized":false,"type":"VEC3"},{"bufferView":3,"byteOffset":0,"componentType":5126,"count":65535,"max":[254,254],"min":[-256,-256],"normalized":false,"type":"VEC2"},{"bufferView":4,"byteOffset":0,"componentType":5123,"count":390132,"max":[65534],"min":[0],"normalized":false,"type":"SCALAR"}],"asset":{"generator":"Godot Engine v4.3.stable.official@77dcf97d82cbfe4e4615475fa52ca03da645dbd8","version":"2.0"},"bufferViews":[{"buffer":0,"byteLength":786420,"byteOffset":0,"byteStride":12,"target":34962},{"buffer":0,"byteLength":1048560,"byteOffset":786420,"byteStride":16,"target":34962},{"buffer":0,"byteLength":786420,"byteOffset":1834980,"byteStride":12,"target":34962},{"buffer":0,"byteLength":524280,"byteOffset":2621400,"byteStride":8,"target":34962},{"buffer":0,"byteLength":780264,"byteOffset":3145680,"target":34963}],"buffers":[{"byteLength":3925944,"uri":"terrain_export0.bin"}],"extensionsUsed":["GODOT_single_root"],"materials":[{"extensions":{},"pbrMetallicRoughness":{"baseColorFactor":[0.99999988079071,0.99999988079071,0.99999988079071,1],"metallicFactor":0,"roughnessFactor":1}}],"meshes":[{"extras":{"targetNames":[]},"primitives":[{"attributes":{"NORMAL":2,"POSITION":0,"TANGENT":1,"TEXCOORD_0":3},"indices":4,"material":0,"mode":4}]}],"nodes":[{"mesh":0,"name":"MeshInstance3D"}],"scene":0,"scenes":[{"nodes":[0]}]}